# xmcd
#
# Track frame offsets: 
#        150
#        16921
#        33329
#        54445
#        74376
#        102066
#        127602
#        144278
#        162038
#        184048
#        208493
#        231156
#        251604
#        283884
#        314618
#        334424
#
# Disc length: 4780 seconds
#
# Revision: 0
# Processed by: cddbd v1.5.2PL0 Copyright (c) Steve Scherf et al.
# Submitted via: ExactAudioCopy v1.1
#
DISCID=e412aa10
DTITLE=Various Artist - Akella Presents - vol.107 - Blues-Rock (women
DTITLE=+ men)  CD1
DYEAR=2017
DGENRE=Blues
TTITLE0=Jocelyn and Chris Arndt - Footprints On The Moon
TTITLE1=Matt O'Ree Band - Born Under a Bad Sign
TTITLE2=Deb Ryder - Get A Little Steam Up
TTITLE3=Bonafide - Smoke and Fire
TTITLE4=Bare Bones Boogie Band - One Good Man
TTITLE5=Rory Kelly's Triple Threat - High Enough To Fall
TTITLE6=Qsp - Tobacco Road
TTITLE7=Blue Max with Howard 'Guitar' Luedtke - Sugar Coated Love
TTITLE8=Sean Chambers - Be Careful With A Fool
TTITLE9=Solomon Cole Band - Shiver
TTITLE10=Wille And The Bandits - Crossfire Memories
TTITLE11=Freerock Saints - Saints and Sinners
TTITLE12=Interstate Blues - Help Me Find The Sun
TTITLE13=Maas and Moody - A Change In Everything
TTITLE14=Jim Gustin And Truth Jones - Good-Bye
TTITLE15=Donna Q and The Heavy - Short Change Hero
EXTD=
EXTT0=
EXTT1=
EXTT2=
EXTT3=
EXTT4=
EXTT5=
EXTT6=
EXTT7=
EXTT8=
EXTT9=
EXTT10=
EXTT11=
EXTT12=
EXTT13=
EXTT14=
EXTT15=
PLAYORDER=
